<mxfile host="app.diagrams.net" agent="Mozilla/5.0 (Windows NT 10.0; Win64; x64) AppleWebKit/537.36 (KHTML, like Gecko) Chrome/128.0.0.0 Safari/537.36" version="24.7.8">
  <diagram name="第 1 页" id="CbHYuHCFCQG-skkJeN6K">
    <mxGraphModel dx="989" dy="532" grid="1" gridSize="10" guides="1" tooltips="1" connect="1" arrows="1" fold="1" page="1" pageScale="1" pageWidth="827" pageHeight="1169" math="0" shadow="0">
      <root>
        <mxCell id="0" />
        <mxCell id="1" parent="0" />
        <mxCell id="_BY5L3cytIMN_b4B7-Sx-1" value="" style="edgeStyle=orthogonalEdgeStyle;rounded=0;orthogonalLoop=1;jettySize=auto;html=1;" edge="1" parent="1" source="_BY5L3cytIMN_b4B7-Sx-2" target="_BY5L3cytIMN_b4B7-Sx-4">
          <mxGeometry relative="1" as="geometry" />
        </mxCell>
        <mxCell id="_BY5L3cytIMN_b4B7-Sx-2" value="&lt;font style=&quot;font-size: 9px;&quot;&gt;程序开始&lt;/font&gt;" style="rounded=0;whiteSpace=wrap;html=1;fillColor=#dae8fc;strokeColor=#6c8ebf;" vertex="1" parent="1">
          <mxGeometry x="270" y="120" width="60" height="30" as="geometry" />
        </mxCell>
        <mxCell id="_BY5L3cytIMN_b4B7-Sx-3" value="" style="edgeStyle=orthogonalEdgeStyle;rounded=0;orthogonalLoop=1;jettySize=auto;html=1;fontFamily=Helvetica;fontSize=12;fontColor=default;" edge="1" parent="1" source="_BY5L3cytIMN_b4B7-Sx-4" target="_BY5L3cytIMN_b4B7-Sx-6">
          <mxGeometry relative="1" as="geometry" />
        </mxCell>
        <mxCell id="_BY5L3cytIMN_b4B7-Sx-4" value="&lt;font style=&quot;font-size: 9px;&quot;&gt;设置中断优先级分组为4&lt;/font&gt;" style="rounded=0;whiteSpace=wrap;html=1;fillColor=#dae8fc;strokeColor=#6c8ebf;" vertex="1" parent="1">
          <mxGeometry x="265" y="180" width="70" height="30" as="geometry" />
        </mxCell>
        <mxCell id="_BY5L3cytIMN_b4B7-Sx-5" value="" style="edgeStyle=orthogonalEdgeStyle;rounded=0;orthogonalLoop=1;jettySize=auto;html=1;fontFamily=Helvetica;fontSize=12;fontColor=default;" edge="1" parent="1" source="_BY5L3cytIMN_b4B7-Sx-6" target="_BY5L3cytIMN_b4B7-Sx-8">
          <mxGeometry relative="1" as="geometry" />
        </mxCell>
        <mxCell id="_BY5L3cytIMN_b4B7-Sx-6" value="&lt;span style=&quot;font-size: 8px;&quot;&gt;初始化外设和算法参数&lt;/span&gt;" style="rounded=0;whiteSpace=wrap;html=1;fillColor=#dae8fc;strokeColor=#6c8ebf;" vertex="1" parent="1">
          <mxGeometry x="265" y="240" width="70" height="30" as="geometry" />
        </mxCell>
        <mxCell id="_BY5L3cytIMN_b4B7-Sx-7" value="" style="edgeStyle=orthogonalEdgeStyle;rounded=0;orthogonalLoop=1;jettySize=auto;html=1;fontFamily=Helvetica;fontSize=12;fontColor=default;" edge="1" parent="1" source="_BY5L3cytIMN_b4B7-Sx-8" target="_BY5L3cytIMN_b4B7-Sx-10">
          <mxGeometry relative="1" as="geometry" />
        </mxCell>
        <mxCell id="_BY5L3cytIMN_b4B7-Sx-8" value="&lt;span style=&quot;font-size: 8px;&quot;&gt;创建开始任务&lt;/span&gt;" style="rounded=0;whiteSpace=wrap;html=1;fillColor=#dae8fc;strokeColor=#6c8ebf;" vertex="1" parent="1">
          <mxGeometry x="265" y="300" width="70" height="30" as="geometry" />
        </mxCell>
        <mxCell id="_BY5L3cytIMN_b4B7-Sx-9" value="" style="edgeStyle=orthogonalEdgeStyle;rounded=0;orthogonalLoop=1;jettySize=auto;html=1;fontFamily=Helvetica;fontSize=12;fontColor=default;" edge="1" parent="1" source="_BY5L3cytIMN_b4B7-Sx-10" target="_BY5L3cytIMN_b4B7-Sx-13">
          <mxGeometry relative="1" as="geometry" />
        </mxCell>
        <mxCell id="_BY5L3cytIMN_b4B7-Sx-10" value="&lt;span style=&quot;font-size: 8px;&quot;&gt;开启任务调度器&lt;/span&gt;" style="rounded=0;whiteSpace=wrap;html=1;fillColor=#dae8fc;strokeColor=#6c8ebf;" vertex="1" parent="1">
          <mxGeometry x="265" y="370" width="70" height="30" as="geometry" />
        </mxCell>
        <mxCell id="_BY5L3cytIMN_b4B7-Sx-11" value="" style="edgeStyle=orthogonalEdgeStyle;rounded=0;orthogonalLoop=1;jettySize=auto;html=1;fontFamily=Helvetica;fontSize=12;fontColor=default;" edge="1" parent="1" source="_BY5L3cytIMN_b4B7-Sx-12" target="_BY5L3cytIMN_b4B7-Sx-19">
          <mxGeometry relative="1" as="geometry" />
        </mxCell>
        <mxCell id="_BY5L3cytIMN_b4B7-Sx-12" value="&lt;font style=&quot;font-size: 10px;&quot;&gt;开始任务&lt;/font&gt;" style="rounded=1;whiteSpace=wrap;html=1;strokeColor=#6c8ebf;align=center;verticalAlign=middle;fontFamily=Helvetica;fontSize=12;fontColor=default;fillColor=#dae8fc;" vertex="1" parent="1">
          <mxGeometry x="410" y="120" width="70" height="30" as="geometry" />
        </mxCell>
        <mxCell id="_BY5L3cytIMN_b4B7-Sx-13" value="&lt;span style=&quot;font-size: 8px;&quot;&gt;while（1）锁死&lt;/span&gt;" style="rounded=0;whiteSpace=wrap;html=1;fillColor=#dae8fc;strokeColor=#6c8ebf;" vertex="1" parent="1">
          <mxGeometry x="265" y="440" width="70" height="30" as="geometry" />
        </mxCell>
        <mxCell id="_BY5L3cytIMN_b4B7-Sx-14" value="" style="edgeStyle=orthogonalEdgeStyle;rounded=0;orthogonalLoop=1;jettySize=auto;html=1;fontFamily=Helvetica;fontSize=12;fontColor=default;" edge="1" parent="1" source="_BY5L3cytIMN_b4B7-Sx-15" target="_BY5L3cytIMN_b4B7-Sx-17">
          <mxGeometry relative="1" as="geometry" />
        </mxCell>
        <mxCell id="_BY5L3cytIMN_b4B7-Sx-15" value="&lt;font style=&quot;font-size: 10px;&quot;&gt;创建INS_task&lt;/font&gt;" style="rounded=0;whiteSpace=wrap;html=1;fillColor=#dae8fc;strokeColor=#6c8ebf;" vertex="1" parent="1">
          <mxGeometry x="410" y="250" width="70" height="30" as="geometry" />
        </mxCell>
        <mxCell id="_BY5L3cytIMN_b4B7-Sx-16" value="" style="edgeStyle=orthogonalEdgeStyle;rounded=0;orthogonalLoop=1;jettySize=auto;html=1;fontFamily=Helvetica;fontSize=12;fontColor=default;" edge="1" parent="1" source="_BY5L3cytIMN_b4B7-Sx-17" target="_BY5L3cytIMN_b4B7-Sx-20">
          <mxGeometry relative="1" as="geometry" />
        </mxCell>
        <mxCell id="_BY5L3cytIMN_b4B7-Sx-17" value="&lt;font style=&quot;font-size: 10px;&quot;&gt;创建pid_task&lt;/font&gt;" style="rounded=0;whiteSpace=wrap;html=1;fillColor=#dae8fc;strokeColor=#6c8ebf;" vertex="1" parent="1">
          <mxGeometry x="410" y="310" width="70" height="30" as="geometry" />
        </mxCell>
        <mxCell id="_BY5L3cytIMN_b4B7-Sx-18" style="edgeStyle=orthogonalEdgeStyle;rounded=0;orthogonalLoop=1;jettySize=auto;html=1;exitX=0.5;exitY=1;exitDx=0;exitDy=0;entryX=0.5;entryY=0;entryDx=0;entryDy=0;fontFamily=Helvetica;fontSize=12;fontColor=default;" edge="1" parent="1" source="_BY5L3cytIMN_b4B7-Sx-19" target="_BY5L3cytIMN_b4B7-Sx-15">
          <mxGeometry relative="1" as="geometry" />
        </mxCell>
        <mxCell id="_BY5L3cytIMN_b4B7-Sx-19" value="&lt;span style=&quot;font-size: 10px;&quot;&gt;开启临界区&lt;/span&gt;" style="rounded=0;whiteSpace=wrap;html=1;fillColor=#dae8fc;strokeColor=#6c8ebf;" vertex="1" parent="1">
          <mxGeometry x="410" y="190" width="70" height="30" as="geometry" />
        </mxCell>
        <mxCell id="_BY5L3cytIMN_b4B7-Sx-20" value="&lt;span style=&quot;font-size: 10px;&quot;&gt;关闭临界区&lt;/span&gt;" style="rounded=0;whiteSpace=wrap;html=1;fillColor=#dae8fc;strokeColor=#6c8ebf;" vertex="1" parent="1">
          <mxGeometry x="410" y="380" width="70" height="30" as="geometry" />
        </mxCell>
      </root>
    </mxGraphModel>
  </diagram>
</mxfile>
